<svg width="45" height="43" viewBox="0 0 45 43" fill="none" xmlns="http://www.w3.org/2000/svg">
<path d="M22.594 0.966225C16.9186 0.908553 11.4525 3.10661 7.39699 7.07733C3.34147 11.048 1.02842 16.4665 0.966171 22.1419C0.98804 26.627 2.43086 30.9899 5.08739 34.6038C7.74392 38.2176 11.4775 40.8966 15.7518 42.2558C16.8332 42.4524 17.2264 41.8036 17.2264 41.2334C17.2264 40.6632 17.2264 39.4048 17.2264 37.6353C11.2099 38.9133 9.9319 34.804 9.9319 34.804C9.53139 33.514 8.67991 32.4113 7.53318 31.6975C5.56701 30.3998 7.69047 30.4194 7.69047 30.4194C8.37008 30.5103 9.0203 30.7539 9.59237 31.1318C10.1644 31.5098 10.6435 32.0124 10.9936 32.6019C11.6038 33.6599 12.605 34.4361 13.7817 34.7634C14.9584 35.0907 16.2166 34.9429 17.2854 34.3518C17.3953 33.2751 17.8829 32.2721 18.6617 31.5205C13.8642 30.9896 8.83085 29.1808 8.83085 21.0605C8.78795 18.9423 9.57061 16.8905 11.0133 15.3389C10.3563 13.5204 10.4338 11.5173 11.2296 9.755C11.2296 9.755 13.0581 9.18482 17.1281 11.9178C20.6709 10.9737 24.3992 10.9737 27.942 11.9178C32.071 9.18482 33.8405 9.755 33.8405 9.755C34.6363 11.5173 34.7138 13.5204 34.0568 15.3389C35.533 16.862 36.3581 18.9001 36.3572 21.0212C36.3572 29.1611 31.2845 30.9503 26.5264 31.4812C27.0474 31.987 27.4498 32.602 27.7048 33.2819C27.9598 33.9619 28.0609 34.6898 28.001 35.4135V41.2137C28.001 41.2137 28.3942 42.4524 29.4756 42.2361C33.7378 40.8685 37.4588 38.1889 40.1071 34.5801C42.7554 30.9714 44.1956 26.618 44.2219 22.1419C44.1597 16.4665 41.8466 11.048 37.7911 7.07733C33.7356 3.10661 28.2695 0.908553 22.594 0.966225Z" fill="#7AA2F7"/>
</svg>
