<svg width="36" height="33" viewBox="0 0 36 33" fill="none" xmlns="http://www.w3.org/2000/svg">
<path d="M10.0747 32.3234C12.9821 32.4207 15.8795 31.9342 18.5956 30.8926C21.3117 29.8511 23.7915 28.2756 25.8884 26.2594C27.9853 24.2431 29.6568 21.827 30.804 19.1538C31.9512 16.4806 32.5509 13.6045 32.5677 10.6955C33.9001 9.04674 34.8894 7.14824 35.4776 5.11162C35.5215 4.95071 35.518 4.78054 35.4674 4.6216C35.4169 4.46266 35.3214 4.32173 35.1926 4.21577C35.0638 4.10981 34.9071 4.04335 34.7414 4.02438C34.5757 4.00542 34.408 4.03476 34.2586 4.10888C33.5616 4.44441 32.7768 4.55279 32.0149 4.41876C31.253 4.28472 30.5524 3.91501 30.0117 3.36173C29.3215 2.60589 28.4865 1.99629 27.5564 1.56903C26.6263 1.14178 25.6199 0.905566 24.5968 0.874397C23.5737 0.843227 22.5547 1.01773 21.6003 1.38757C20.6459 1.75741 19.7754 2.31506 19.0405 3.02748C18.0342 4.00203 17.2971 5.22033 16.9009 6.56398C16.5047 7.90763 16.4628 9.33093 16.7794 10.6955C10.1927 11.0888 5.6705 7.96257 2.05275 3.67632C1.94407 3.55324 1.8019 3.46447 1.6436 3.42085C1.4853 3.37724 1.31772 3.38066 1.16134 3.4307C1.00495 3.48075 0.866524 3.57524 0.762956 3.70266C0.659387 3.83007 0.595162 3.98489 0.578124 4.1482C-0.111079 7.97126 0.386087 11.9137 2.00285 15.4459C3.61961 18.9782 6.27853 21.9312 9.6225 23.9082C7.38036 26.4796 4.23168 28.0856 0.833726 28.3911C0.651683 28.4213 0.483633 28.5076 0.353098 28.638C0.222564 28.7685 0.136076 28.9365 0.10574 29.1185C0.0754031 29.3005 0.102736 29.4874 0.183914 29.6532C0.265091 29.8189 0.39605 29.9551 0.558462 30.0427C3.51464 31.52 6.77004 32.3002 10.0747 32.3234Z" fill="#7AA2F7"/>
</svg>
